<svg width="190" height="82" viewBox="0 0 190 82" fill="none" xmlns="http://www.w3.org/2000/svg">
<g clip-path="url(#clip0_1344_24481)">
<path d="M160 52.0977C160 48.834 158.377 45.8485 156.942 43.2153C155.716 40.9715 154.621 38.9317 154.904 37.4111C155.112 36.3171 155.904 35.6866 157.131 35.6124C157.169 35.6124 157.207 35.5939 157.244 35.5939C157.301 35.5753 157.358 35.5382 157.414 35.5011C157.471 35.464 157.509 35.4084 157.528 35.3528C157.528 35.3342 157.546 35.3342 157.546 35.3157L158.15 33.7766C158.207 33.6097 158.226 33.4984 158.169 33.3872C158.132 33.313 158.075 33.2388 157.981 33.1646C157.867 33.0719 157.679 32.9977 157.433 32.9236C157.093 32.8123 156.659 32.7381 156.263 32.7381C154.489 32.7381 152.318 33.313 150.431 37.9303C150.356 38.1158 146.713 47.3876 146.6 47.6843C146.147 48.7784 145.184 50.095 143.146 50.095C142.259 50.095 141.542 49.7612 141.145 49.2049C141.07 49.0936 141.013 48.9824 140.957 48.8711C140.806 48.5002 140.749 48.0552 140.843 47.573C140.881 47.4061 140.919 47.2207 140.976 47.0353C141.07 46.72 141.202 46.3677 141.353 46.0154C142.75 42.5106 147.713 30.0308 149.242 26.1922C149.431 25.7101 149.167 25.3207 148.638 25.3207H146.883C146.694 25.3207 146.487 25.3763 146.317 25.469C145.996 25.6174 145.732 25.8955 145.6 26.1922C144.92 27.8797 143.958 30.3275 142.938 32.905C142.146 34.8892 141.334 36.9475 140.579 38.8204C140.353 38.4496 140.088 38.0972 139.805 37.7635C139.503 37.4297 139.183 37.1144 138.843 36.8363C137.371 35.6495 135.502 35.0005 133.445 35.0005C130.916 35.0005 128.481 36.0018 126.575 37.6337C126.5 37.6893 126.443 37.7635 126.367 37.8191C126.311 37.8562 126.273 37.9118 126.216 37.9489C124.971 39.0986 123.989 40.5265 123.385 42.1027C123.385 42.1212 123.367 42.1398 123.367 42.1768C123.291 42.3808 123.234 42.5848 123.159 42.8073C123.046 43.1967 122.951 43.5862 122.895 43.9941C122.838 44.365 122.8 44.7359 122.781 45.1067C122.744 46.1823 122.914 47.2393 123.253 48.2035C123.083 48.4817 122.857 48.7413 122.612 48.9824C121.913 49.6314 120.988 50.0579 120.026 50.1321C119.932 50.1321 119.856 50.1321 119.762 50.1321C119.384 50.1321 119.026 50.0579 118.705 49.9466C118.308 49.7983 117.969 49.5572 117.742 49.242C117.308 48.63 117.308 47.7399 117.705 46.72C117.799 46.4604 118.403 44.8842 118.95 43.4749C119.365 42.3808 119.743 41.3609 119.818 41.1569C119.856 41.0457 119.932 40.8788 119.988 40.6748C120.083 40.2854 120.139 39.7476 119.875 39.1913C119.762 38.9688 119.63 38.7834 119.479 38.6165C119.177 38.3012 118.78 38.1158 118.403 37.9674C118.252 37.9118 118.101 37.8562 117.95 37.8191C117.686 37.7449 117.403 37.6336 117.082 37.5038C117.063 37.5038 117.063 37.4853 117.044 37.4853C116.515 37.2628 113.968 36.0945 113.968 33.8693C113.968 33.8137 113.968 33.758 113.968 33.7209C113.968 33.7024 113.968 33.6839 113.968 33.6653C113.968 33.6468 113.968 33.6097 113.968 33.5911C113.93 33.2573 113.817 33.0534 113.666 32.9421C113.647 32.9421 113.647 32.9236 113.628 32.9236C113.628 32.9236 113.628 32.9236 113.609 32.9236C113.59 32.905 113.571 32.905 113.552 32.8865C113.552 32.8865 113.552 32.8865 113.533 32.8865C113.533 32.8865 113.533 32.8865 113.515 32.8865C113.496 32.8865 113.496 32.8679 113.477 32.8679C113.382 32.8308 113.288 32.8123 113.175 32.8123H111.439C111.08 32.8123 110.684 32.9977 110.419 33.2759C110.306 33.3872 110.212 33.5355 110.155 33.6839C109.778 34.6296 109.325 35.7607 108.853 36.9661C107.192 41.1569 105.21 46.1823 104.644 47.6101C104.625 47.6658 104.606 47.7214 104.587 47.777C104.134 48.8711 103.172 50.1877 101.115 50.1877C100.228 50.1877 99.4916 49.8539 99.1141 49.2976C98.8876 48.9638 98.7744 48.5373 98.7933 48.0366C98.8121 47.6472 98.9065 47.2207 99.0764 46.7757C99.435 45.8485 100.209 43.9199 101.02 41.8801C101.794 39.9331 102.606 37.8562 103.172 36.4469C103.361 35.9647 103.096 35.5753 102.568 35.5753H100.813H100.643C100.53 35.5753 100.398 35.5938 100.265 35.6309C100.247 35.6309 100.247 35.6309 100.228 35.6309C99.8124 35.7422 99.3972 36.0204 99.1519 36.3171C98.2459 37.3926 97.0758 38.2641 95.7924 38.8946C94.509 39.5251 93.1312 39.9331 91.8101 40.0814C91.6213 39.5993 91.376 39.1171 91.074 38.6721C91.0551 38.6536 91.0551 38.635 91.0363 38.6165C90.8475 38.3383 90.6588 38.0787 90.4323 37.8191C88.8658 36.0389 86.6199 35.0561 84.072 35.0561C82.7131 35.0561 81.3919 35.3528 80.1463 35.872C80.7691 34.2958 81.3919 32.701 81.977 31.199C82.6942 29.3632 83.3736 27.6572 83.921 26.2479C84.0153 26.0253 83.9965 25.8399 83.921 25.673C83.8266 25.4876 83.619 25.3763 83.3359 25.3763H83.317H81.5807H81.5618C81.3542 25.3763 81.1277 25.4505 80.9201 25.5617C80.6747 25.6915 80.4671 25.877 80.3539 26.0995C80.335 26.1551 80.2973 26.1922 80.2784 26.2479C78.0324 31.8666 74.4465 40.9715 72.7479 45.3293C72.276 46.5161 71.9552 47.3691 71.8231 47.6843C71.3701 48.7784 70.4075 50.095 68.3692 50.095C68.1805 50.095 68.0106 50.0764 67.8596 50.0579C67.2179 49.9466 66.6706 49.6685 66.3686 49.2049C66.312 49.1122 66.2554 49.0194 66.1988 48.9082C66.0289 48.5373 65.9723 48.0737 66.0666 47.573C66.1044 47.332 66.2365 46.9426 66.3875 46.5531C66.5951 45.9968 66.8027 45.4591 66.8027 45.4591C66.8027 45.4591 67.5577 43.5676 68.6334 40.8232C68.7467 40.5265 68.8788 40.2112 69.0109 39.8774C69.0298 39.8403 69.0487 39.8033 69.0487 39.7662C70.7095 35.5753 72.9366 29.9195 74.5408 25.8399C75.1825 24.1895 75.7299 22.7987 76.1073 21.8716C76.2961 21.3894 76.0318 21 75.5034 21H73.7482C73.2197 21 72.6535 21.3894 72.4648 21.8716C72.2571 22.3908 70.4076 27.1009 68.3315 32.3673C65.6514 39.1542 62.6128 46.8684 62.292 47.7029C62.2165 47.8697 62.141 48.0366 62.0466 48.2035C61.7635 48.7413 61.3294 49.2605 60.7254 49.6314C60.2347 49.9281 59.593 50.1135 58.8192 50.1321C58.102 50.1321 57.4981 49.9281 57.0829 49.5387C56.9885 49.446 56.8941 49.3532 56.7998 49.242C56.5167 48.8155 56.4034 48.2777 56.5167 47.6472V47.6287C56.611 47.0909 57.3471 45.1995 57.3471 45.1624C57.8189 43.9756 58.3663 42.5663 58.9513 41.0642C60.8953 36.1502 63.2734 30.0678 64.8021 26.2293C64.8399 26.118 64.8587 26.0068 64.8587 25.8955C64.8399 25.7472 64.7832 25.5988 64.67 25.5061C64.5568 25.4134 64.4058 25.3578 64.1982 25.3578H62.4429C62.2542 25.3578 62.0466 25.4134 61.8579 25.5061C61.5936 25.6359 61.3671 25.8399 61.235 26.081C61.2162 26.118 61.1784 26.1737 61.1595 26.2108C60.7066 27.3419 60.2159 28.6029 59.6874 29.938C59.1212 31.3844 58.5173 32.9236 57.8944 34.4627C55.4786 40.5821 53.0817 46.72 52.6853 47.7029C52.5532 48.0181 52.3834 48.3333 52.1758 48.6486C51.6096 49.446 50.7036 50.1135 49.2126 50.1135C48.6653 50.1135 48.1746 49.9837 47.7782 49.7612C47.5518 49.6128 47.3441 49.446 47.212 49.2234C47.1177 49.0751 47.0422 48.9267 46.9855 48.7598C46.8723 48.4261 46.8534 48.0366 46.9289 47.6101C47.0233 47.0909 47.5518 45.7372 47.6461 45.5332C47.6461 45.5147 47.665 45.4962 47.665 45.4962L51.2698 36.3727C51.4586 35.8905 51.1943 35.5011 50.6659 35.5011H48.9106C48.5898 35.5011 48.2501 35.6495 47.9858 35.872C47.967 35.872 47.967 35.8905 47.967 35.8905C47.816 36.0204 47.7027 36.1872 47.6461 36.3541L47.2875 37.2813L46.7213 38.7277C46.6081 38.5608 46.4948 38.3939 46.3816 38.227C46.2684 38.0602 46.1362 37.9118 46.0041 37.7635C45.4379 37.1144 44.7585 36.5581 44.0224 36.1316C42.7579 35.3899 41.2669 35.0005 39.6626 35.0005C35.7181 35.0005 31.9811 37.4482 30.1504 40.8973C29.6408 41.8616 29.2822 42.9 29.1124 43.9756C28.716 46.4975 29.3766 48.8896 30.962 50.6884C31.4527 51.2447 32 51.7268 32.6228 52.1162C32.7361 52.1904 32.8682 52.2646 33.0003 52.3388C34.2648 53.062 35.737 53.4514 37.3223 53.4514C39.8702 53.4514 42.3427 52.4129 44.2678 50.7626C44.3244 50.8738 44.3999 50.9851 44.4754 51.0963C44.5131 51.152 44.5697 51.2261 44.6075 51.2818C44.6075 51.3003 44.6264 51.3003 44.6264 51.3189C44.6641 51.3745 44.7207 51.4301 44.7585 51.4858C44.7962 51.5228 44.834 51.5599 44.8528 51.597C44.8717 51.6341 44.9095 51.6526 44.9472 51.6897C45.0038 51.7454 45.0605 51.801 45.0982 51.8566C45.1171 51.8752 45.1359 51.8937 45.1548 51.9123C45.2303 51.9679 45.2869 52.0421 45.3624 52.0977C45.3624 52.0977 45.3624 52.0977 45.3813 52.1162C46.023 52.654 46.8346 53.0805 47.7782 53.303C47.7971 53.303 47.816 53.3216 47.8349 53.3216C47.9292 53.3401 48.0236 53.3587 48.118 53.3772C48.1557 53.3772 48.1935 53.3957 48.2501 53.3957C48.3256 53.4143 48.4011 53.4143 48.4954 53.4328C48.5709 53.4328 48.6275 53.4514 48.703 53.4514C48.7597 53.4514 48.8163 53.4699 48.8918 53.4699C49.0239 53.4699 49.156 53.4885 49.307 53.4885C50.2884 53.4885 51.2132 53.303 52.0625 52.9507C52.3834 52.8209 52.6853 52.6725 52.9684 52.4871C53.0628 52.4315 53.1572 52.3758 53.2515 52.3017C53.629 52.0421 53.9876 51.7639 54.3085 51.4301C54.4217 51.5785 54.5538 51.7083 54.6859 51.8381C55.5541 52.7096 56.7243 53.2474 58.0643 53.4143C58.102 53.4143 58.1587 53.4328 58.1964 53.4328C58.2341 53.4328 58.2719 53.4328 58.3096 53.4328C58.3851 53.4328 58.4606 53.4514 58.5361 53.4514C58.5739 53.4514 58.6116 53.4514 58.6305 53.4514C58.706 53.4514 58.8004 53.4514 58.8758 53.4514C60.8387 53.4514 62.5751 52.7282 63.8584 51.4301C64.3492 52.0235 64.972 52.5057 65.6892 52.858C66.5007 53.2474 67.4255 53.4514 68.407 53.4514C68.9165 53.4514 69.4073 53.3957 69.8791 53.303C71.9363 52.8951 73.6349 51.6156 74.673 49.687C74.7296 49.7797 74.7862 49.8539 74.8428 49.9466C74.9183 50.0579 74.9938 50.1692 75.0693 50.2804C75.1825 50.4288 75.2958 50.5586 75.409 50.7069C76.9755 52.4871 79.2215 53.4699 81.7694 53.4699C85.2421 53.4699 88.5638 51.5599 90.5456 48.7784C91.4515 47.4989 92.0743 46.0525 92.3197 44.5133C92.3763 44.1239 92.414 43.7345 92.4329 43.3451C92.7726 43.308 93.1124 43.2524 93.4332 43.1782C94.8865 42.9 96.2454 42.4365 97.4533 41.806C97.4155 41.8987 97.3778 42.01 97.34 42.1027C96.7738 43.5676 96.2642 44.8286 96 45.5147C95.1696 47.573 95.3017 49.5758 96.3775 51.1334C96.7738 51.7083 97.2834 52.1904 97.8685 52.5613C98.8121 53.1547 99.9446 53.4885 101.19 53.4885C104.191 53.4885 106.664 51.801 107.834 48.9453C107.985 48.5744 108.287 47.7956 108.683 46.7757C109.513 44.6802 110.759 41.5278 111.891 38.6721C111.986 38.4125 112.099 38.1529 112.193 37.9118C113.175 39.1171 114.496 40.0258 115.779 40.5635C115.855 40.6006 115.912 40.6192 115.987 40.6563C116.138 40.7119 116.289 40.7675 116.421 40.8232C115.779 42.5292 114.76 45.2365 114.628 45.5332C114.119 46.8128 113.968 48.0552 114.194 49.1863C114.326 49.891 114.609 50.5586 115.006 51.152C115.27 51.5228 115.572 51.8566 115.912 52.1533C116.855 52.9507 118.082 53.4328 119.441 53.507C119.573 53.507 119.686 53.5256 119.818 53.5256C120.026 53.5256 120.234 53.507 120.441 53.4885C120.479 53.4885 120.536 53.4885 120.573 53.4699C120.592 53.4699 120.611 53.4699 120.63 53.4699C121.498 53.3772 122.329 53.1176 123.102 52.7467C123.895 52.3573 124.612 51.8381 125.216 51.2261C126.405 52.3758 127.934 53.1176 129.651 53.3957C130.123 53.4699 130.614 53.507 131.124 53.507C131.765 53.507 132.407 53.4328 133.03 53.3216C134.747 52.9878 136.37 52.1904 137.729 51.0963C137.861 51.0036 137.975 50.8924 138.088 50.7811C138.163 50.9109 138.239 51.0407 138.314 51.152C138.975 52.0977 139.919 52.7838 141.032 53.1732C141.089 53.1918 141.145 53.2103 141.183 53.2289C141.24 53.2474 141.315 53.2659 141.372 53.2845C141.447 53.303 141.504 53.3216 141.579 53.3401C141.636 53.3587 141.693 53.3587 141.749 53.3772C141.825 53.3957 141.881 53.4143 141.957 53.4143C142.014 53.4328 142.07 53.4328 142.127 53.4514C142.202 53.4699 142.259 53.4699 142.334 53.4699C142.41 53.4699 142.485 53.4885 142.561 53.4885C142.618 53.4885 142.674 53.507 142.731 53.507C142.863 53.507 142.995 53.5256 143.146 53.5256C146.147 53.5256 148.619 51.8381 149.789 48.9824C149.846 48.8155 150.941 46.1266 151.828 43.9014C152.092 43.2338 152.337 42.6033 152.526 42.1027C152.62 42.3067 152.734 42.5292 152.828 42.7332C153.187 43.4378 153.564 44.161 153.96 44.9028C154.281 45.4962 154.621 46.1081 154.923 46.72C155.848 48.5373 156.622 50.3917 156.622 52.209C156.622 57.5681 152.922 58.5138 151.79 58.6807C151.035 58.792 150.469 59.3668 150.356 60.0715C150.337 60.2384 150.318 60.4052 150.356 60.5721C150.356 60.6278 150.375 60.6834 150.393 60.7205C150.582 61.4622 151.262 62 152.035 62C152.073 62 152.111 62 152.167 62C152.205 62 152.243 62 152.3 62C153.187 61.8702 154.13 61.592 155.017 61.1655C157.641 59.7191 160 56.9005 160 52.0977ZM138.258 43.957C137.937 46.1452 136.521 48.0737 134.672 49.1678C134.653 49.1863 134.615 49.2049 134.596 49.2049C134.596 49.2049 134.577 49.2049 134.577 49.2234C133.596 49.7797 132.501 50.095 131.369 50.095C130.84 50.095 130.331 50.0208 129.859 49.8725C129.029 49.6128 128.293 49.1493 127.745 48.5002C127.198 47.8512 126.858 47.0538 126.726 46.1637V46.1452C126.651 45.6074 126.651 45.0511 126.745 44.4763C126.877 43.6232 127.16 42.8073 127.594 42.0656C128.16 41.0642 128.953 40.2112 129.878 39.5622C130.991 38.8019 132.294 38.3383 133.634 38.3383C134.54 38.3383 135.37 38.5423 136.068 38.9502C136.521 39.2099 136.918 39.5436 137.257 39.9331C137.427 40.137 137.578 40.341 137.692 40.5635C138.126 41.3053 138.333 42.1768 138.333 43.104C138.333 43.3822 138.314 43.6603 138.258 43.957ZM80.2218 49.9281C79.297 49.687 78.5043 49.2049 77.9192 48.4817C77.0321 47.4247 76.6735 45.9968 76.9 44.4577V44.4392C76.9566 44.0498 77.051 43.716 77.1454 43.4378C77.2775 43.104 77.4096 42.7517 77.5606 42.3994C77.5795 42.3437 77.6172 42.3066 77.6361 42.251C77.6927 42.1583 77.7305 42.0656 77.7871 41.9729C77.806 41.9358 77.8248 41.9172 77.8437 41.8801C78.2589 41.194 78.7685 40.5821 79.3536 40.0629C80.5992 38.9873 82.1657 38.3198 83.7888 38.3198C84.5249 38.3198 85.2232 38.4681 85.8272 38.7277C86.45 39.0059 86.9785 39.3953 87.4126 39.9145C88.2996 40.9715 88.6582 42.3994 88.4317 43.957C87.9221 47.332 84.8269 50.095 81.524 50.095C81.0711 50.095 80.637 50.0393 80.2218 49.9281ZM37.5111 50.095C36.0201 50.095 34.7367 49.5201 33.8685 48.5002C33.7741 48.389 33.6986 48.2777 33.6231 48.1664C32.9059 47.1465 32.6417 45.8485 32.8493 44.4577C33.3589 41.0828 36.473 38.3198 39.7948 38.3198C41.2858 38.3198 42.5692 38.8946 43.4373 39.9145C44.3244 40.9715 44.7019 42.3994 44.4565 43.957C44.4188 44.2166 44.3621 44.4763 44.2866 44.7359C43.4562 47.7399 40.5686 50.095 37.5111 50.095Z" fill="black"/>
</g>
<defs>
<clipPath id="clip0_1344_24481">
<rect width="190" height="81.4285" fill="white"/>
</clipPath>
</defs>
</svg>
