<svg width="190" height="82" viewBox="0 0 190 82" fill="none" xmlns="http://www.w3.org/2000/svg">
<g clip-path="url(#clip0_1344_24494)">
<path d="M128.844 47.4573L141 60.1412L129.524 60.1561L125.575 55.8686C125.575 55.8686 122.499 52.5487 120.636 50.5836C120.636 53.9481 120.636 56.9256 120.636 60.0221C117.752 60.0221 115.09 60.0221 112.324 60.0221C112.324 47.3233 112.324 34.7286 112.324 22C115.06 22 117.722 22 120.532 22C120.532 29.5479 120.532 37.0064 120.532 45.0009C122.721 42.8571 129.154 36.396 129.154 36.396C129.154 36.396 137.806 36.4407 140.645 36.4407C136.578 40.2667 128.844 47.4573 128.844 47.4573ZM98.4967 35.8898C96.6924 35.6516 94.7994 35.7559 92.9952 36.0536C87.5381 36.9915 83.8261 41.2195 83.3676 46.7725C82.8352 53.174 85.5859 57.9826 91.0431 59.9179C94.9473 61.3025 98.9108 61.3471 102.771 59.7542C105.832 58.5036 107.976 55.9877 108.849 52.7125C108.479 52.7125 101.085 52.7125 101.085 52.7125C101.085 52.7125 100.745 53.2782 100.094 53.7993C98.615 55.0051 96.1156 55.3624 94.1635 54.4543C92.4776 53.6504 91.6938 52.1319 91.8269 49.735C97.5206 49.735 103.392 49.735 109.204 49.735C109.204 41.2046 105.61 36.8129 98.4967 35.8898ZM92.0043 44.7776C92.4332 42.5742 94.0156 41.279 96.3818 41.1748C98.8664 41.0706 100.597 42.3063 101.277 44.7776C98.1565 44.7776 95.0804 44.7776 92.0043 44.7776ZM80.114 22C77.3337 22 74.7013 22 72.0689 22C72.0689 34.7584 72.0689 47.4126 72.0689 60.037C74.8492 60.037 77.4668 60.037 80.114 60.037C80.114 47.2786 80.114 34.6244 80.114 22ZM67.8393 37.4828C67.8393 37.4828 67.2181 36.7831 66.2568 36.4109C61.2582 34.4904 54.7659 36.4109 51.4975 40.7878C48.1552 45.2688 48.17 51.6853 51.5271 56.0175C54.9285 60.4241 62.6631 62.7614 67.4695 59.4118C67.4695 57.7742 67.4695 54.8414 67.4695 52.7125C63.6984 54.6776 60.7997 54.3799 58.892 52.0277C57.1912 49.9137 57.1764 46.7576 58.892 44.6436C60.8589 42.2169 63.7279 42.1425 67.8393 44.1672C67.8393 43.795 67.8393 37.4828 67.8393 37.4828Z" fill="black"/>
</g>
<defs>
<clipPath id="clip0_1344_24494">
<rect width="190" height="81.4285" fill="white"/>
</clipPath>
</defs>
</svg>
