<svg width="190" height="82" viewBox="0 0 190 82" fill="none" xmlns="http://www.w3.org/2000/svg">
<g clip-path="url(#clip0_1344_24485)">
<path d="M51.5657 51.2615H61.0257V53.5533H47V29.5431L49.2714 28.4456L50.1907 28H51.5657V51.2615ZM80.3581 46.5227L81.7739 47.0981C80.9082 50.08 78.2828 52.4023 75.3901 53.4336C72.0415 54.6458 68.0793 53.7163 65.5049 51.3965C63.7171 49.8262 62.6812 47.5701 62.6554 45.1908C62.607 41.1981 64.6671 37.3988 68.395 35.871C70.5824 34.9186 73.6941 34.8524 75.9452 35.7386C78.9856 36.8564 81.3104 39.6677 81.2239 42.9347H66.7093C66.6787 46.8766 69.1538 50.9789 73.3962 50.9433C76.1717 50.9433 79.3268 49.3517 80.297 46.6907C80.297 46.6907 79.8489 47.8621 80.3581 46.5227ZM71.1909 36.7571C68.833 36.7571 66.9639 38.891 66.745 41.1676L76.047 41.1828C76.0089 38.6364 73.6711 36.7088 71.1909 36.7571ZM119.67 44.8802C117.439 43.113 114.292 42.5426 111.873 41.1446C108.593 39.1839 110.52 36.5407 113.749 36.6196C116.041 36.6196 117.788 37.9667 119.076 39.9657L120.772 38.5829C118.784 36.174 116.887 35.0409 113.788 35.1121C110.66 35.0383 106.999 36.7928 106.983 40.2228C107.045 44.9133 112.698 45.5702 115.817 47.5616C117.386 48.4987 118.063 50.4009 116.415 51.6358C114.908 52.7308 112.631 52.6035 111.068 51.6511C109.991 50.9916 109.176 50.0545 108.336 48.9748L106.502 50.5027C107.969 52.326 109.909 53.5406 112.143 53.8538C115.427 54.2587 119.484 53.7418 121.032 50.6198C121.982 48.5394 121.511 46.2909 119.672 44.8903M143 53.5839L138.307 53.5686C137.383 53.1408 136.524 52.326 136.42 51.2768C135.078 52.2649 133.818 53.2757 132.129 53.6933C129.619 54.3783 126.247 53.8666 125.147 51.1826C124.274 49.1786 125.002 46.8537 126.695 45.5219C129.382 43.3651 133.1 42.5834 136.405 41.7863C136.405 40.3221 136.489 38.6058 135.659 37.4981C134.839 36.4541 133.028 36.4261 131.857 36.8946C130.477 37.465 129.596 38.8249 129.42 40.2839H125.557C125.998 36.5076 130.377 35.0994 133.731 35.107C136.362 35.1402 139.244 35.5094 140.265 37.9845C140.5 38.6244 140.617 39.3018 140.609 39.9835V50.984C140.589 52.0356 141.419 52.853 142.323 53.2757L143 53.5839ZM136.405 43.2785C134.054 44.0195 130.652 45.1884 129.275 47.3197C128.412 48.761 129.412 50.63 130.836 51.2564C132.855 52.0433 134.778 50.7166 136.392 49.6217V43.2785M102.41 46.5227L103.831 47.0981C102.968 50.08 100.342 52.4023 97.4497 53.4336C94.1011 54.6458 90.1389 53.7163 87.5645 51.3965C85.7755 49.8251 84.7393 47.5668 84.715 45.1858C84.6667 41.193 86.7267 37.3937 90.4546 35.8659C92.642 34.9135 95.7537 34.8473 98.0048 35.7335C101.043 36.8513 103.368 39.6626 103.281 42.9297H88.7613C88.7307 46.8715 91.1956 50.9738 95.4457 50.9381C98.2238 50.9381 101.379 49.3467 102.349 46.6857C102.357 46.6907 101.901 47.8621 102.41 46.5227ZM93.243 36.7571C90.8825 36.7571 89.0133 38.891 88.7969 41.1676L98.099 41.1828C98.0608 38.6364 95.7206 36.7088 93.243 36.7571ZM140.708 32.5836C141.974 32.5836 143 31.5575 143 30.2918C143 29.0261 141.974 28 140.708 28C139.442 28 138.416 29.0261 138.416 30.2918C138.416 31.5575 139.442 32.5836 140.708 32.5836ZM140.708 28.4253C141.739 28.4253 142.575 29.2609 142.575 30.2918C142.575 31.3226 141.739 32.1583 140.708 32.1583C139.677 32.1583 138.842 31.3226 138.842 30.2918C138.843 29.2615 139.678 28.4267 140.708 28.4253ZM141.184 31.43L140.634 30.5872L140.252 30.5744V31.43H139.774V29.1535C140.005 29.1535 140.948 29.1128 141.151 29.1994C141.442 29.2932 141.637 29.5648 141.634 29.8699C141.631 30.175 141.431 30.4429 141.139 30.5311L141.727 31.43H141.184ZM140.252 30.1568H140.838C140.919 30.1642 140.999 30.1363 141.058 30.0802C141.118 30.0241 141.149 29.9453 141.146 29.864C141.151 29.7798 141.119 29.6977 141.057 29.64C140.996 29.5824 140.912 29.5552 140.828 29.566H140.252V30.1568Z" fill="black"/>
</g>
<defs>
<clipPath id="clip0_1344_24485">
<rect width="190" height="81.4285" fill="white"/>
</clipPath>
</defs>
</svg>
