<svg width="190" height="82" viewBox="0 0 190 82" fill="none" xmlns="http://www.w3.org/2000/svg">
<g clip-path="url(#clip0_1344_24497)">
<path fill-rule="evenodd" clip-rule="evenodd" d="M83.8747 30.7854C81.7446 37.2639 81.3829 43.5461 83.0307 45.4602C83.2065 45.6578 83.3946 45.8383 83.5933 46.0001C84.1962 45.2148 85 41.5339 85 35.3498C84.9391 33.5207 84.6407 31.7149 84.1158 30.0001C84.0354 30.2455 83.955 30.4909 83.8747 30.7854Z" fill="black"/>
<path fill-rule="evenodd" clip-rule="evenodd" d="M86.6498 55.006H86.5001C86.2802 55.0077 86.0633 55.0614 85.8649 55.1634C85.6664 55.2654 85.4914 55.4131 85.3521 55.596C85.1006 56.2028 84.9811 56.8632 85.0027 57.5271C84.9801 58.1737 85.0999 58.8169 85.3521 59.4045C85.4762 59.6049 85.6484 59.7655 85.8505 59.8694C86.0526 59.9733 86.277 60.0165 86.5001 59.9946C86.72 59.9928 86.9369 59.9391 87.1353 59.8371C87.3338 59.7351 87.5088 59.5874 87.6481 59.4045C87.8996 58.7977 88.0191 58.1373 87.9975 57.4734C87.9975 56.6152 87.9476 56.0251 87.6481 55.596C87.5576 55.4 87.4134 55.2384 87.235 55.1329C87.0566 55.0275 86.8524 54.9832 86.6498 55.006Z" fill="black"/>
<path fill-rule="evenodd" clip-rule="evenodd" d="M101 44.0001C102.168 43.8084 103.267 43.3347 104.195 42.623C105.228 41.8632 106.998 40.2487 106.998 37.732C107.061 33.8994 105.875 30.1447 103.605 27.0001C101.885 31.5588 101.098 38.0169 101 44.0001Z" fill="black"/>
<path fill-rule="evenodd" clip-rule="evenodd" d="M129.837 14.0001H59.163C56.8879 14.0001 55.0484 16.3448 55 19.2269V61.8222C55 64.7043 56.8879 67.0001 59.163 67.0001H129.837C132.112 67.0001 134 64.7043 134 61.8222V19.2269C134 16.3448 132.112 14.0001 129.837 14.0001ZM77.7028 55.3743L77.606 62.213H73.0558L73.201 57.084V56.9375C73.2419 56.5464 73.157 56.1525 72.9589 55.8139C72.8902 55.7089 72.7967 55.6228 72.6869 55.5631C72.5771 55.5034 72.4544 55.4721 72.3297 55.472C72.1427 55.4746 71.9595 55.525 71.7972 55.6186C71.5634 55.7046 71.3494 55.8376 71.1679 56.0093L70.9743 62.213H66.424L66.5692 56.6932V56.6444C66.5402 56.3857 66.4578 56.1361 66.3272 55.9116C66.2487 55.8239 66.1508 55.7561 66.0415 55.7136C65.9322 55.6712 65.8144 55.6554 65.6979 55.6674C65.511 55.67 65.3278 55.7204 65.1654 55.8139C64.9264 55.8887 64.71 56.0231 64.5362 56.2047L64.3425 62.213H59.8891L60.0343 52.4434H64.4877V53.5669C65.108 53.1788 65.7551 52.8359 66.424 52.5411C66.983 52.3337 67.5714 52.2183 68.1667 52.1992C68.6861 52.1971 69.1992 52.314 69.6673 52.5411C70.1047 52.8017 70.4838 53.151 70.7806 53.5669C71.3839 53.1495 72.0338 52.8052 72.7169 52.5411C73.4087 52.3324 74.125 52.2174 74.8468 52.1992C75.8149 52.1992 76.5411 52.4434 76.9767 52.9808C77.5092 53.4204 77.7028 54.202 77.7028 55.2766V55.3743ZM90.7243 61.0407C89.6593 61.9199 88.2071 62.4084 86.3192 62.4573H85.9804C84.1409 62.4573 82.7855 62.0176 81.769 61.0895C81.2713 60.5836 80.8814 59.9802 80.6234 59.3166C80.3653 58.6529 80.2445 57.943 80.2684 57.2305C80.2403 56.5066 80.3786 55.7859 80.6725 55.1249C80.9664 54.4639 81.408 53.8805 81.9626 53.4204C83.2393 52.5201 84.7617 52.0421 86.3192 52.0527H86.7065C88.4491 52.0527 89.9013 52.4923 90.8695 53.4204C91.381 53.8872 91.7849 54.4616 92.0525 55.103C92.3202 55.7445 92.4451 56.4374 92.4185 57.1328C92.4517 57.8717 92.3162 58.6083 92.0224 59.2859C91.7287 59.9635 91.2845 60.5638 90.7243 61.0407ZM106.311 55.5697L106.166 62.213H101.616L101.761 57.4259V56.9863C101.797 56.642 101.711 56.2959 101.519 56.0093C101.434 55.8982 101.323 55.8092 101.197 55.7497C101.071 55.6902 100.932 55.662 100.793 55.6674C100.607 55.6761 100.425 55.7261 100.26 55.8139C100.013 55.9155 99.7705 56.0296 99.5343 56.1559L99.4375 62.213H94.8873L95.0809 52.4434H99.6311V53.4204C100.306 53.0352 101.02 52.7241 101.761 52.4923C102.257 52.3004 102.78 52.1852 103.31 52.1504C104.13 52.1288 104.928 52.4261 105.537 52.9808C106.099 53.6627 106.377 54.5385 106.311 55.4232V55.5697ZM100.599 48.0471C99.7783 48.0829 98.9666 47.8611 98.2757 47.4121C97.8706 47.1269 97.54 46.7468 97.3124 46.3044C97.0847 45.862 96.9668 45.3705 96.9687 44.872C96.9687 41.1107 97.2592 30.6573 100.454 23.5743C97.9607 21.6793 94.9101 20.6818 91.7892 20.7411C90.4822 20.7411 88.4491 22.4508 86.4645 25.7236C88.2511 28.5723 89.1917 31.8778 89.1752 35.249C89.1752 43.5531 87.8199 48.3402 85.1091 49.5126C84.7253 49.779 84.2677 49.9158 83.8021 49.9033C82.8339 49.9033 81.6722 49.5126 80.3652 48.2425C76.3958 44.4324 77.9449 35.6886 80.462 29.3384C80.8977 28.2637 81.3817 27.1891 81.9142 26.1144C80.4498 24.5041 78.5111 23.4115 76.3843 22.9981C74.2575 22.5847 72.0553 22.8724 70.1029 23.8186H70.0545C65.3591 25.919 63.6648 37.496 63.6648 46.7771H59.7923C59.7923 39.9872 60.6152 23.8186 68.4571 20.2527C72.9105 18.1522 77.7512 18.3964 81.769 20.9854C82.5186 21.4672 83.2306 22.0061 83.8989 22.5974C86.1256 19.3245 88.8848 16.8333 91.8376 16.8333C95.6361 16.7939 99.3486 17.9743 102.439 20.2038C103.019 19.398 103.722 18.6892 104.52 18.1033C106.747 16.4425 109.409 16.0517 112.265 16.931C127.756 21.6692 129.062 34.2232 129.062 46.7282H125.19C125.19 32.6112 122.963 24.2582 111.152 20.6434C109.409 20.1061 108.054 20.3015 106.844 21.1808C106.249 21.6202 105.741 22.1667 105.343 22.7927C105.471 22.9271 105.584 23.0744 105.682 23.2324C108.877 27.0425 110.668 32.2204 110.668 37.7402C110.668 43.9439 104.617 48.0471 100.599 48.0471ZM116.816 55.7651H114.298V57.8656C114.282 57.9982 114.296 58.1327 114.337 58.2595C114.379 58.3862 114.449 58.502 114.54 58.5983C114.785 58.7547 115.075 58.8235 115.363 58.7937H115.751C115.944 58.7937 116.089 58.7448 116.331 58.7448L116.719 61.9688C116.101 62.1503 115.47 62.281 114.831 62.3596C114.374 62.4899 113.902 62.5557 113.427 62.555C112.472 62.5876 111.535 62.2951 110.765 61.7245C110.45 61.4364 110.204 61.0803 110.045 60.6828C109.885 60.2852 109.817 59.8566 109.845 59.4287V55.8628H108.441L108.49 52.5411H109.893L109.942 49.0241H114.347V52.4434H116.961L116.816 55.7651ZM129.982 57.9633H123.157C123.275 58.406 123.529 58.7995 123.883 59.0868C124.14 59.307 124.466 59.4282 124.803 59.4287C124.945 59.4665 125.092 59.483 125.238 59.4775C125.697 59.4748 126.153 59.409 126.594 59.2821C127.236 59.1523 127.867 58.9726 128.482 58.7448L129.208 61.4315C128.432 61.7712 127.62 62.0172 126.787 62.1642C126.134 62.313 125.471 62.411 124.803 62.4573H124.512C122.77 62.4573 121.317 62.0176 120.349 61.0895C119.836 60.6031 119.432 60.0113 119.165 59.3541C118.898 58.6968 118.773 57.9893 118.8 57.2794C118.824 56.559 118.971 55.8483 119.236 55.1789C119.599 54.5431 120.056 53.9667 120.591 53.4692C121.1 53.0151 121.692 52.6666 122.334 52.4434C123.049 52.1873 123.802 52.0552 124.561 52.0527H124.803C125.49 52.0431 126.171 52.1771 126.804 52.4461C127.437 52.7151 128.008 53.1133 128.482 53.6158C129.45 54.6416 129.982 56.107 129.982 57.9633Z" fill="black"/>
<path fill-rule="evenodd" clip-rule="evenodd" d="M125.457 54.0054C125.262 53.989 125.066 54.0248 124.881 54.1106C124.697 54.1964 124.528 54.3304 124.386 54.5041C124.145 54.9001 124.01 55.3859 124 55.8893L125.5 55.9447L127 56.0001C126.986 55.4447 126.819 54.914 126.529 54.5041C126.387 54.3278 126.219 54.1922 126.034 54.1062C125.85 54.0203 125.653 53.9859 125.457 54.0054Z" fill="black"/>
</g>
<defs>
<clipPath id="clip0_1344_24497">
<rect width="190" height="81.4285" fill="white"/>
</clipPath>
</defs>
</svg>
