<svg width="190" height="82" viewBox="0 0 190 82" fill="none" xmlns="http://www.w3.org/2000/svg">
<g clip-path="url(#clip0_1344_24488)">
<path d="M66.1386 56.4428C66.1125 56.4782 66.0863 56.5135 66.0602 56.5489C63.0882 56.5489 60.1162 56.5489 57.0135 56.5489C57.1617 56.372 57.2227 56.2394 57.3272 56.1774C58.591 55.4168 59.1488 54.3201 59.1401 52.8076C59.1226 49.2167 59.1836 45.6169 59.2098 42.026C59.2185 41.0619 59.1226 40.1155 58.6956 39.2311C58.1204 38.0459 56.9786 37.524 55.7497 37.9397C54.4076 38.3908 53.597 39.4345 52.9782 40.6639C52.9259 40.77 52.9434 40.9204 52.9434 41.0531C52.9434 45.0509 52.9346 49.0398 52.9434 53.0376C52.9434 54.382 53.5709 55.3903 54.669 56.1244C54.8085 56.2128 54.9218 56.3367 55.0438 56.4428C55.0176 56.4782 55.0002 56.5224 54.9741 56.5578C52.0021 56.5578 49.0388 56.5578 45.9361 56.5578C46.0842 56.3897 46.154 56.2659 46.2586 56.1951C47.4874 55.4168 48.0627 54.2935 48.0627 52.8342C48.054 45.2631 48.0627 37.6833 48.0627 30.1122C48.0627 28.6086 47.3741 27.5384 46.0843 26.8397C45.9709 26.7778 45.8838 26.6628 45.7879 26.5744C45.9012 26.5124 46.0058 26.4151 46.1278 26.3886C48.2631 25.9552 50.3897 25.5307 52.525 25.0973C52.6034 25.0796 52.6819 25.0354 52.7516 25C52.8126 25 52.8649 25 52.9259 25C52.9346 27.565 52.9346 30.1299 52.9434 32.6949C52.9434 34.9768 52.9434 37.2587 53.0218 39.576C53.1089 39.4168 53.1961 39.2664 53.2833 39.1072C54.0154 37.7805 54.9653 36.675 56.2814 35.9232C59.6194 34.0216 63.6024 36.1089 63.9946 39.974C64.0556 40.5401 64.0818 41.1238 64.0818 41.6899C64.0905 45.4666 64.0992 49.2344 64.073 53.0111C64.0643 54.4085 64.6831 55.3903 65.79 56.1332C65.912 56.204 66.0166 56.3367 66.1386 56.4428ZM155.438 53.639C154.026 51.0387 152.596 48.4384 151.184 45.838C150.879 45.272 150.357 44.6971 150.357 44.1222C150.357 43.5473 150.888 42.9724 151.167 42.3975C151.925 40.8143 153.198 39.8767 154.845 39.4876C155.751 39.2753 156.693 39.2134 157.669 39.0719C157.669 38.0017 157.669 36.8607 157.669 35.6932C156.039 35.6136 154.566 35.8966 153.407 37.1614C152.405 38.2582 151.786 39.5937 151.123 40.9027C150.705 41.7164 150.304 42.5301 149.86 43.4146C149.285 42.3355 148.735 41.3538 148.239 40.3455C147.925 39.6998 147.655 39.0276 147.446 38.3466C147.184 37.471 147.411 36.9403 148.151 36.4008C148.247 36.33 148.361 36.2858 148.43 36.1973C148.518 36.1001 148.561 35.9585 148.648 35.7993C145.502 35.7993 142.46 35.7993 139.41 35.7993C139.384 35.8347 139.349 35.8612 139.323 35.8966C139.436 36.0293 139.523 36.2062 139.654 36.2946C140.473 36.8253 141.205 37.4533 141.676 38.3201C143.402 41.4688 145.118 44.6263 146.827 47.7839C146.905 47.9254 146.896 48.1907 146.827 48.3411C146.53 48.9779 146.19 49.597 145.877 50.225C145.171 51.6136 144.055 52.5246 142.582 52.9049C141.641 53.1526 140.656 53.241 139.628 53.4091C139.628 54.4704 139.628 55.6202 139.628 56.7524C141.719 56.9469 143.375 56.204 144.43 54.3643C145.371 52.728 146.208 51.021 147.088 49.3494C147.175 49.1813 147.271 49.0044 147.428 48.7125C148.239 50.3753 149.04 51.8878 149.72 53.4621C150.391 55.0276 149.956 55.6379 148.962 56.257C148.857 56.319 148.814 56.4782 148.674 56.6904C148.979 56.6904 149.154 56.6904 149.328 56.6904C152.222 56.6993 155.106 56.6993 158 56.7081C158 56.5931 158 56.4693 158 56.3543C156.867 55.7529 156.056 54.7888 155.438 53.639ZM99.3011 49.2609C99.3011 49.3759 99.3272 49.5086 99.2924 49.6147C98.6997 51.2952 98.0809 52.9668 97.0002 54.3908C95.8585 55.8944 94.3943 56.8496 92.4681 56.9204C92.4159 56.9204 92.3636 56.9646 92.3113 56.9912C92.137 56.9912 91.9627 56.9912 91.7883 56.9912C91.2131 56.8762 90.6117 56.8143 90.054 56.6462C87.7182 55.9298 86.071 54.3378 85.0338 52.162C82.9508 47.7662 82.9944 43.3527 85.4435 39.1072C86.8641 36.6484 89.0952 35.3483 91.9539 35.2421C94.8911 35.136 97.4708 36.9491 98.5777 39.9033C99.0309 41.1061 99.275 42.6451 99.1617 43.6622C95.5011 43.7065 91.8319 43.7595 88.0494 43.8038C88.1365 44.9093 88.1714 45.9795 88.3283 47.0321C88.5549 48.5976 89.0865 50.0569 90.054 51.3129C91.9452 53.7629 95.0828 53.9751 97.2268 51.7463C97.8892 51.0564 98.4034 50.2161 98.9961 49.4555C99.0658 49.3847 99.1965 49.3405 99.3011 49.2609ZM88.1453 43.0608C88.2063 43.0873 88.2324 43.1139 88.2586 43.1139C89.8971 43.105 91.5356 43.1404 93.1741 43.0785C94.1677 43.0431 94.769 42.3532 94.6993 41.4599C94.5773 39.8856 94.1938 38.3908 93.3571 37.0376C92.503 35.649 91.0998 35.5428 90.0452 36.7899C89.3829 37.5594 89.0168 38.4881 88.7379 39.4522C88.3806 40.6285 88.2063 41.8402 88.1453 43.0608ZM82.0793 49.2521C82.088 49.3671 82.1403 49.4997 82.1054 49.5882C81.5738 50.8441 81.1031 52.1354 80.4756 53.3383C79.5953 55.0188 78.3055 56.2836 76.4142 56.7612C75.9959 56.8673 75.5688 56.9204 75.1504 56.9912C74.95 56.9912 74.7408 56.9912 74.5404 56.9912C74.2789 56.9469 74.0087 56.9027 73.7473 56.8585C71.3243 56.4339 69.5812 55.0188 68.2826 52.9757C65.7726 49.0044 65.7551 43.0431 68.2652 39.0719C69.8427 36.5688 72.1087 35.1891 75.0633 35.2687C78.2096 35.3659 80.4843 37.1968 81.504 40.2394C81.8875 41.3803 82.0793 42.8397 81.9398 43.6622C78.2967 43.7065 74.645 43.7595 70.967 43.8038C70.967 44.476 70.9321 45.1128 70.9757 45.7496C71.0803 47.3239 71.4289 48.8364 72.1697 50.2338C72.9367 51.6755 73.9913 52.8076 75.6298 53.1703C77.5734 53.6037 79.1421 52.8872 80.3885 51.3925C80.9027 50.7734 81.3385 50.0923 81.8178 49.4467C81.8701 49.3671 81.9921 49.3228 82.0793 49.2521ZM70.9409 43.0873C72.6578 43.0873 74.3138 43.1404 75.961 43.0697C77.0766 43.0254 77.5995 42.2825 77.4775 41.1504C77.4426 40.8143 77.3816 40.4782 77.3119 40.1509C77.0766 38.9923 76.728 37.869 76.0481 36.8872C75.2463 35.7197 73.9913 35.5959 73.0064 36.6042C72.7363 36.8872 72.4922 37.2056 72.3005 37.5506C71.3679 39.2576 71.0629 41.1327 70.9409 43.0873ZM139.959 49.5882C139.392 50.906 138.904 52.277 138.216 53.524C137.248 55.2841 135.819 56.5401 133.762 56.8762C133.509 56.9204 133.257 56.9558 133.013 57C132.812 57 132.603 57 132.403 57C131.976 56.9292 131.548 56.8762 131.139 56.77C128.864 56.2128 127.226 54.78 126.032 52.7988C124.942 50.9945 124.402 49.0133 124.297 46.8994C124.166 44.3344 124.55 41.8756 125.796 39.6114C126.999 37.4444 128.725 35.9143 131.182 35.4279C135.209 34.6407 138.556 36.843 139.541 40.9116C139.75 41.7872 139.811 42.6982 139.95 43.6711C136.159 43.7242 132.498 43.7684 128.838 43.8126C128.838 44.5025 128.794 45.1747 128.847 45.838C128.986 47.7485 129.465 49.5528 130.581 51.1271C131.923 53.0376 134.067 53.754 136.089 52.9934C137.161 52.5865 137.954 51.817 138.634 50.9237C139 50.4461 139.314 49.9331 139.663 49.4467C139.724 49.3582 139.846 49.3051 139.933 49.2344C139.941 49.3671 139.994 49.4909 139.959 49.5882ZM128.794 43.0785C130.537 43.0785 132.202 43.1404 133.867 43.0608C134.974 43.0077 135.488 42.2206 135.34 41.1061C135.322 40.9646 135.305 40.8143 135.279 40.6727C135.043 39.3195 134.686 38.0017 133.893 36.8519C133.492 36.2593 132.96 35.8878 132.211 35.9409C131.374 36.0028 130.834 36.5158 130.407 37.1791C129.248 38.9569 128.943 40.9823 128.794 43.0785ZM40.916 44.0691C39.7655 43.4146 38.6063 42.7689 37.5169 42.026C36.0876 41.0531 35.6344 39.6291 35.922 37.9309C36.2357 36.0824 37.9353 35.1891 39.5999 36.0028C40.6022 36.4981 41.3517 37.2852 41.8311 38.2847C42.4063 39.4699 42.9118 40.6904 43.4086 41.911C43.5568 42.2648 43.7136 42.4063 44.1145 42.2648C43.9925 39.8767 43.8618 37.4798 43.7398 35.0741C43.609 35.0652 43.5393 35.0475 43.4696 35.0475C41.6393 35.0475 39.8091 35.0299 37.9788 35.0564C37.5082 35.0652 37.0201 35.1183 36.5582 35.251C34.1876 35.9232 32.5752 37.356 32.122 39.9121C32.0784 40.1774 32.0436 40.4516 32 40.717C32 40.8673 32 41.0088 32 41.1592C32.0261 41.3007 32.0523 41.4334 32.0784 41.5749C32.1917 42.1498 32.244 42.7424 32.4183 43.2996C32.889 44.7767 33.9697 45.785 35.1899 46.5987C36.3229 47.3593 37.5518 47.9784 38.7371 48.6506C40.9334 49.8889 41.7788 51.534 41.404 53.8778C41.1774 55.2753 40.1403 56.1951 38.833 56.1509C37.8481 56.1155 37.0027 55.7529 36.2967 55.0542C35.399 54.1697 34.7018 53.1437 34.1876 51.9939C33.7257 50.9679 33.2725 49.9331 32.8367 48.8894C32.6972 48.5533 32.5142 48.4384 32.1307 48.5887C32.2702 51.2244 32.4009 53.8601 32.5404 56.487C32.9151 56.4428 33.255 56.3632 33.6037 56.3809C34.6931 56.4339 35.7738 56.4959 36.8545 56.6197C37.9963 56.7524 39.1206 56.9912 40.271 56.7435C45.4916 55.5937 46.8338 50.0835 43.9838 46.6252C43.1297 45.5639 42.0926 44.7325 40.916 44.0691ZM122.859 53.9751C121.953 54.8242 120.855 54.5058 120.549 53.3029C120.384 52.6396 120.297 51.9409 120.288 51.251C120.271 46.5456 120.279 41.8491 120.279 37.1437C120.279 36.9845 120.279 36.8342 120.279 36.6484C121.369 36.6484 122.397 36.6484 123.426 36.6396C123.548 36.6396 123.757 36.5954 123.783 36.5069C123.879 36.2593 123.914 35.9851 123.975 35.6667C122.667 35.6667 121.438 35.6667 120.192 35.6667C120.192 33.6501 120.192 31.6777 120.192 29.7054C120.14 29.67 120.096 29.6434 120.044 29.6081C119.939 29.7407 119.8 29.8646 119.739 30.0149C119.05 31.5539 118.301 33.0398 117.028 34.1896C116.096 35.0299 115.05 35.6755 113.934 36.2239C113.83 36.2769 113.725 36.3742 113.69 36.4804C113.673 36.5423 113.778 36.6838 113.865 36.728C114.876 37.3295 115.329 38.2228 115.329 39.3991C115.32 43.3969 115.311 47.3858 115.346 51.3836C115.355 52.215 115.442 53.073 115.678 53.8601C116.697 57.283 120.366 57.4865 122.057 55.974C123.025 55.1072 123.609 53.9663 124.14 52.7988C124.175 52.7192 124.105 52.5954 124.079 52.4804C123.644 53.0376 123.304 53.5683 122.859 53.9751ZM108.653 36.8695C108.121 37.5948 107.677 38.3908 107.206 39.1692C107.049 39.4257 106.953 39.7087 106.823 39.974C106.796 39.9652 106.762 39.9563 106.735 39.9475C106.796 38.3554 106.857 36.7634 106.918 35.2156C104.574 35.6932 102.264 36.162 99.8502 36.6573C100.016 36.7899 100.112 36.9138 100.242 36.9845C101.402 37.6744 102.012 38.665 102.003 40.0625C101.985 44.4052 101.994 48.7568 102.003 53.0995C102.003 54.5058 101.445 55.5672 100.199 56.2305C100.103 56.2836 100.042 56.4163 99.9025 56.5755C100.129 56.5843 100.216 56.5931 100.303 56.5931C103.267 56.5931 106.23 56.5931 109.184 56.5931C109.315 56.5931 109.446 56.5224 109.568 56.487C109.455 56.3986 109.359 56.2747 109.237 56.2305C107.799 55.7352 106.936 54.5323 106.936 52.9934C106.936 49.2255 106.936 45.4489 106.945 41.681C106.945 41.4422 106.988 41.1857 107.067 40.9558C107.572 39.5318 108.67 38.9657 110.065 38.8684C110.823 38.8154 111.59 38.8596 112.366 38.8596C112.366 37.6744 112.366 36.5246 112.366 35.3571C110.893 35.3394 109.568 35.6313 108.653 36.8695Z" fill="black"/>
</g>
<defs>
<clipPath id="clip0_1344_24488">
<rect width="190" height="81.4285" fill="white"/>
</clipPath>
</defs>
</svg>
