<svg width="190" height="82" viewBox="0 0 190 82" fill="none" xmlns="http://www.w3.org/2000/svg">
<g clip-path="url(#clip0_1344_24491)">
<path d="M172 51.1034C165.175 51.1034 158.166 51.1034 151.111 51.1034C151.111 44.0792 151.111 37.1009 151.111 30C158.136 37.1163 165.114 44.1559 172 51.1034Z" fill="black"/>
<path d="M52.8023 44.1406C52.8023 39.4015 52.8023 34.7391 52.8023 30.0767C53.9986 30.0767 55.1642 30.0767 56.3451 30.0767C56.3451 37.1163 56.3451 44.1406 56.3451 51.2262C55.5323 51.2262 54.7348 51.2415 53.9372 51.2109C53.8299 51.2109 53.7225 51.0575 53.6458 50.9501C50.2411 46.4871 46.8516 42.0241 43.4469 37.5611C43.3395 37.4231 43.2322 37.285 43.0634 37.0703C43.0634 41.8401 43.0634 46.5025 43.0634 51.2109C41.8672 51.2109 40.7169 51.2109 39.536 51.2109C39.536 44.1713 39.536 37.147 39.536 30.0614C39.9654 30.0614 40.4255 30.1074 40.8549 30.0461C41.7138 29.9234 42.2199 30.2761 42.7414 30.9509C45.9774 35.2606 49.2595 39.5395 52.5263 43.8185C52.6029 43.9105 52.6796 43.9872 52.8023 44.1406ZM74.2278 30.4755C74.2278 34.5397 74.2278 38.604 74.2278 42.6683C74.2278 43.067 74.2432 43.4658 74.2892 43.8492C74.8873 49.2938 80.7306 52.7139 85.8071 50.6281C89.0125 49.3091 91.0523 46.3031 91.0523 42.8523C91.0677 38.7114 91.0523 34.5704 91.0523 30.4295C91.0523 30.3068 91.0523 30.1841 91.0523 30.0767C89.8407 30.0767 88.7058 30.0767 87.5248 30.0767C87.5248 30.2608 87.5248 30.4141 87.5248 30.5522C87.5248 34.6011 87.5402 38.65 87.5248 42.6989C87.5095 45.9043 84.5648 48.2048 81.4515 47.4533C79.2736 46.9319 77.7553 44.9688 77.7553 42.6376C77.7553 38.604 77.7553 34.5551 77.7553 30.5215C77.7553 30.3681 77.7553 30.2148 77.7553 30.0461C76.559 30.0461 75.4241 30.0461 74.2278 30.0461C74.2432 30.2301 74.2278 30.3528 74.2278 30.4755ZM19 30.3528C19 34.6011 19 38.8341 19 43.0823C19 44.0792 19.1994 45.0455 19.5675 45.9657C20.9784 49.4625 24.8893 52.0544 29.4597 51.0115C32.9258 50.214 35.9012 46.8705 35.8858 42.8983C35.8552 38.742 35.8858 34.6011 35.8858 30.4448C35.8858 30.3221 35.8705 30.1994 35.8552 30.0767C34.6589 30.0767 33.5086 30.0767 32.3123 30.0767C32.3123 30.2608 32.3123 30.4295 32.3123 30.5982C32.3123 34.5091 32.3123 38.42 32.3123 42.3308C32.3123 42.6683 32.297 43.021 32.2663 43.3584C32.0209 46.4104 28.6315 48.5423 25.7789 47.4533C23.7391 46.6712 22.5275 44.8921 22.5275 42.6836C22.5275 38.65 22.5275 34.6164 22.5275 30.5675C22.5275 30.4141 22.5275 30.2454 22.5275 30.0767C21.3312 30.0767 20.1963 30.0767 19.0153 30.0767C19 30.1841 19 30.2608 19 30.3528ZM106.65 31.5031C103.414 29.2485 98.552 29.5399 95.6994 32.7607C94.2884 34.3557 93.4909 36.1654 93.5062 38.3279C93.5215 39.8463 93.5062 41.3646 93.5215 42.883C93.5215 43.4044 93.5676 43.9259 93.6442 44.4473C94.3344 48.3582 97.8772 51.8243 103.046 51.2569C106.496 50.8734 109.426 48.1588 110.131 44.7387C110.223 44.2786 110.269 43.8185 110.346 43.3124C109.687 43.3124 109.119 43.3124 108.552 43.3124C107.969 43.3124 107.386 43.3124 106.834 43.3124C106.681 43.8185 106.589 44.3093 106.389 44.7387C106.19 45.1835 105.914 45.6129 105.607 45.9963C104.38 47.5147 102.218 48.0975 100.362 47.4533C98.3833 46.7785 97.0643 45.0455 97.0183 43.0363C96.9877 41.4413 96.9877 39.8463 97.0183 38.2513C97.0797 35.0152 100.438 32.7147 103.475 33.8343C105.285 34.4937 106.343 35.8127 106.696 37.6991C106.711 37.8065 106.865 37.9752 106.941 37.9752C108.03 37.9905 109.104 37.9905 110.254 37.9905C110.07 35.2299 108.889 33.0674 106.65 31.5031ZM63.3694 51.1955C64.5657 51.1955 65.7006 51.1955 66.8968 51.1955C66.8968 45.3062 66.8968 39.4475 66.8968 33.5582C68.3845 33.5582 69.8415 33.5582 71.2985 33.5582C71.2985 32.3773 71.2985 31.227 71.2985 30.0767C67.1729 30.0767 63.0626 30.0767 58.9524 30.0767C58.9524 31.2423 58.9524 32.3926 58.9524 33.5582C60.4247 33.5582 61.851 33.5582 63.3694 33.5582C63.3694 39.4782 63.3694 45.3369 63.3694 51.1955ZM130.023 49.125C130.023 48.8643 129.946 48.6803 129.762 48.4962C127.247 46.0117 124.747 43.5118 122.232 41.0119C122.125 40.9045 121.956 40.8278 121.818 40.7358C121.833 40.6745 121.849 40.6285 121.849 40.5671C121.956 40.4904 122.094 40.4137 122.186 40.3217C124.717 37.8065 127.232 35.2912 129.762 32.7607C129.854 32.6687 129.992 32.546 130.008 32.4386C130.023 31.6564 130.023 30.8589 130.023 30.0461C129.272 30.0461 128.581 30.0614 127.876 30.0461C127.615 30.0461 127.431 30.1227 127.247 30.3068C123.919 33.6349 120.591 36.9476 117.263 40.2757C117.14 40.3984 117.002 40.4751 116.849 40.5671C116.956 40.7051 117.002 40.7512 117.033 40.7972C120.468 44.2173 123.888 47.6374 127.324 51.0575C127.401 51.1342 127.508 51.2262 127.6 51.2262C128.382 51.2415 129.18 51.2415 130.008 51.2415C130.023 50.4747 130.008 49.7999 130.023 49.125ZM113.199 51.2109C114.38 51.2109 115.515 51.2109 116.68 51.2109C116.68 44.1559 116.68 37.1317 116.68 30.0767C115.515 30.0767 114.364 30.0767 113.199 30.0767C113.199 37.1317 113.199 44.1559 113.199 51.2109ZM140.667 37.5611C140.667 40.9352 140.652 44.3093 140.682 47.6834C140.698 49.3704 141.848 50.7201 143.489 51.1342C143.704 51.1802 143.918 51.2415 144.133 51.2415C145.176 51.2569 146.219 51.2415 147.292 51.2415C147.292 50.5514 147.292 49.8766 147.292 49.1557C147.139 49.1557 147.001 49.1557 146.863 49.1557C146.296 49.1557 145.713 49.1557 145.145 49.1557C143.857 49.1557 143.075 48.4042 143.075 47.1159C143.059 43.8339 143.075 40.5518 143.075 37.2697C143.075 37.193 143.09 37.1317 143.105 37.009C144.516 37.009 145.897 37.009 147.308 37.009C147.308 36.3188 147.308 35.6593 147.308 34.9538C145.897 34.9538 144.516 34.9538 143.075 34.9538C143.075 33.2975 143.075 31.6871 143.075 30.0767C142.262 30.0767 141.495 30.0767 140.698 30.0767C140.698 30.2301 140.698 30.3681 140.698 30.5062C140.698 31.8558 140.698 33.2208 140.698 34.5704C140.698 34.8618 140.621 34.9538 140.329 34.9385C139.869 34.9232 139.409 34.9385 138.949 34.9385C138.627 34.9385 138.305 34.9385 137.983 34.9385C137.983 35.6747 137.983 36.3342 137.983 37.009C138.888 37.009 139.762 37.009 140.698 37.009C140.667 37.239 140.667 37.3924 140.667 37.5611ZM135.974 34.9692C135.176 34.9692 134.425 34.9692 133.612 34.9692C133.612 35.1532 133.612 35.3219 133.612 35.4753C133.612 40.5671 133.612 45.6436 133.612 50.7354C133.612 50.8274 133.581 50.9348 133.627 50.9961C133.673 51.0882 133.781 51.2415 133.857 51.2415C134.563 51.2569 135.253 51.2569 135.974 51.2569C135.974 45.797 135.974 40.3831 135.974 34.9692ZM133.597 32.3466C133.597 33.1441 133.505 33.0061 134.271 33.0061C134.839 33.0061 135.406 33.0061 135.974 33.0061C135.974 31.9938 135.974 31.0276 135.974 30.0614C135.192 30.0614 134.44 30.0614 133.597 30.0614C133.597 30.8436 133.597 31.5951 133.597 32.3466Z" fill="black"/>
</g>
<defs>
<clipPath id="clip0_1344_24491">
<rect width="190" height="81.4285" fill="white"/>
</clipPath>
</defs>
</svg>
